# xmcd
#
# Track frame offsets:
#	150
#	17827
#	40235
#	59345
#	78759
#	94700
#	113649
#	134286
#	148429
#	169583
#	188546
#	206223
#	213565
#	220743
#	240157
#	256098
#	275047
#	295684
#	300909
#	322063
#	352276
#
# Disc length: 4703 seconds
#
# Revision: 1
# Processed by: cddbd v1.5.2PL0 Copyright (c) Steve Scherf et al.
# Submitted via: audiograbber 1.83.01
#
DISCID=38125d15
DTITLE=Shania Twain - P Tunes 096
DYEAR=1900
DGENRE=KARAOKE
TTITLE0=Twain, Shania - Cest 'La Vie
TTITLE1=Twain, Shania - Forever And For Always
TTITLE2=Twain, Shania - I'm Gonna Getcha Good
TTITLE3=Twain, Shania - I'm Jealous
TTITLE4=Twain, Shania - It Only Hurts When I'm Breathing
TTITLE5=Twain, Shania - Jaunita
TTITLE6=Twain, Shania - Nah!
TTITLE7=Twain, Shania - Up!
TTITLE8=Twain, Shania - Wanna Get To Know You That Good
TTITLE9=Twain, Shania - When You Kiss Me
TTITLE10=Twain, Shania - Cest 'La Vie, Vocals
TTITLE11=Twain, Shania - Forever And For Always, Vocals
TTITLE12=Twain, Shania - I'm Gonna Getcha Good, Vocals
TTITLE13=Twain, Shania - I'm Jealous, Vocals
TTITLE14=Twain, Shania - It Only Hurts When I'm Breathing, Vocals
TTITLE15=Twain, Shania - Jaunita, Vocals
TTITLE16=Twain, Shania - Nah!, Vocals
TTITLE17=Twain, Shania - Up!, Vocals
TTITLE18=Twain, Shania - Wanna Get To Know You, Vocals
TTITLE19=Twain, Shania - When  You Kiss Me, Vocals
TTITLE20=Data - Data Track
EXTD=
EXTT0=
EXTT1=
EXTT2=
EXTT3=
EXTT4=
EXTT5=
EXTT6=
EXTT7=
EXTT8=
EXTT9=
EXTT10=
EXTT11=
EXTT12=
EXTT13=
EXTT14=
EXTT15=
EXTT16=
EXTT17=
EXTT18=
EXTT19=
EXTT20=
PLAYORDER=
